<svg width="18" height="16" viewBox="0 0 18 16" fill="none" xmlns="http://www.w3.org/2000/svg">
<path d="M8.48005 15.7301C8.28303 15.7304 8.09335 15.6553 7.95005 15.5201L0.950053 8.52006C0.6576 8.22724 0.6576 7.75288 0.950053 7.46006L7.95005 0.460063C8.24287 0.167609 8.71724 0.167609 9.01005 0.460063C9.153 0.59935 9.23362 0.790475 9.23362 0.990063C9.23362 1.18965 9.153 1.38077 9.01005 1.52006L2.55005 8.00006L9.00005 14.4501C9.143 14.5894 9.22362 14.7805 9.22362 14.9801C9.22362 15.1797 9.143 15.3708 9.00005 15.5101C8.86458 15.6521 8.67635 15.7318 8.48005 15.7301Z" fill="#0B1C3F"/>
<path d="M16.52 8.75H1.52002C1.10581 8.75 0.77002 8.41421 0.77002 8C0.77002 7.58579 1.10581 7.25 1.52002 7.25H16.52C16.9342 7.25 17.27 7.58579 17.27 8C17.27 8.41421 16.9342 8.75 16.52 8.75Z" fill="#0B1C3F"/>
<path d="M8.48005 15.7301C8.28303 15.7304 8.09335 15.6553 7.95005 15.5201L0.950053 8.52006C0.6576 8.22724 0.6576 7.75288 0.950053 7.46006L7.95005 0.460063C8.24287 0.167609 8.71724 0.167609 9.01005 0.460063C9.153 0.59935 9.23362 0.790475 9.23362 0.990063C9.23362 1.18965 9.153 1.38077 9.01005 1.52006L2.55005 8.00006L9.00005 14.4501C9.143 14.5894 9.22362 14.7805 9.22362 14.9801C9.22362 15.1797 9.143 15.3708 9.00005 15.5101C8.86458 15.6521 8.67635 15.7318 8.48005 15.7301Z" fill="#0B1C3F"/>
<path d="M16.52 8.75H1.52002C1.10581 8.75 0.77002 8.41421 0.77002 8C0.77002 7.58579 1.10581 7.25 1.52002 7.25H16.52C16.9342 7.25 17.27 7.58579 17.27 8C17.27 8.41421 16.9342 8.75 16.52 8.75Z" fill="#0B1C3F"/>
</svg>
