<svg width="48" height="48" viewBox="0 0 48 48" fill="none" xmlns="http://www.w3.org/2000/svg">
<rect x="0.5" y="0.5" width="47" height="47" rx="7.5" fill="#F0F0FF"/>
<path fill-rule="evenodd" clip-rule="evenodd" d="M23.44 14H24.56C29.7736 14 34 18.2264 34 23.44V24.56C34 29.7736 29.7736 34 24.56 34H23.44C18.2264 34 14 29.7736 14 24.56V23.44C14 18.2264 18.2264 14 23.44 14ZM24.56 32.5C28.9315 32.4673 32.4673 28.9315 32.5 24.56V23.44C32.4673 19.0685 28.9315 15.5327 24.56 15.5H23.44C19.0685 15.5327 15.5327 19.0685 15.5 23.44V24.56C15.5327 28.9315 19.0685 32.4673 23.44 32.5H24.56Z" fill="#423FFF"/>
<path d="M28 23.25H24.75V20C24.75 19.5858 24.4142 19.25 24 19.25C23.5858 19.25 23.25 19.5858 23.25 20V23.25H20C19.5858 23.25 19.25 23.5858 19.25 24C19.25 24.4142 19.5858 24.75 20 24.75H23.25V28C23.25 28.4142 23.5858 28.75 24 28.75C24.4142 28.75 24.75 28.4142 24.75 28V24.75H28C28.4142 24.75 28.75 24.4142 28.75 24C28.75 23.5858 28.4142 23.25 28 23.25Z" fill="#423FFF"/>
<rect x="0.5" y="0.5" width="47" height="47" rx="7.5" stroke="#423FFF"/>
</svg>
