<svg width="44" height="44" viewBox="0 0 44 44" fill="none" xmlns="http://www.w3.org/2000/svg">
<path d="M0 8C0 3.58172 3.58172 0 8 0H36C40.4183 0 44 3.58172 44 8V36C44 40.4183 40.4183 44 36 44H8C3.58172 44 0 40.4183 0 36V8Z" fill="#FFEDEB"/>
<path fill-rule="evenodd" clip-rule="evenodd" d="M21.44 12H22.56C27.7736 12 32 16.2264 32 21.44V22.56C32 27.7736 27.7736 32 22.56 32H21.44C16.2264 32 12 27.7736 12 22.56V21.44C12 16.2264 16.2264 12 21.44 12ZM22.56 30.5C26.9315 30.4673 30.4673 26.9315 30.5 22.56V21.44C30.4673 17.0685 26.9315 13.5327 22.56 13.5H21.44C17.0685 13.5327 13.5327 17.0685 13.5 21.44V22.56C13.5327 26.9315 17.0685 30.4673 21.44 30.5H22.56Z" fill="#DC2626"/>
<path d="M26 21.25H18C17.5858 21.25 17.25 21.5858 17.25 22C17.25 22.4142 17.5858 22.75 18 22.75H26C26.4142 22.75 26.75 22.4142 26.75 22C26.75 21.5858 26.4142 21.25 26 21.25Z" fill="#DC2626"/>
<path d="M8 1H36V-1H8V1ZM43 8V36H45V8H43ZM36 43H8V45H36V43ZM1 36V8H-1V36H1ZM8 43C4.13401 43 1 39.866 1 36H-1C-1 40.9706 3.02944 45 8 45V43ZM43 36C43 39.866 39.866 43 36 43V45C40.9706 45 45 40.9706 45 36H43ZM36 1C39.866 1 43 4.13401 43 8H45C45 3.02944 40.9706 -1 36 -1V1ZM8 -1C3.02944 -1 -1 3.02944 -1 8H1C1 4.13401 4.13401 1 8 1V-1Z" fill="#FFC8C2"/>
</svg>
