<svg width="18" height="18" viewBox="0 0 18 18" fill="none" xmlns="http://www.w3.org/2000/svg">
<path d="M3.678 17.1112C2.75923 17.1113 1.87726 16.7501 1.22245 16.1056L1.15023 16.0334C0.82123 15.7123 0.559817 15.3287 0.381395 14.9051C0.202973 14.4814 0.111151 14.0264 0.111338 13.5667C0.110176 13.0691 0.207787 12.5761 0.398516 12.1165C0.589245 11.6568 0.869299 11.2396 1.22245 10.8889L9.83356 2.37226C10.7085 1.4613 11.9062 0.930459 13.1688 0.894089C14.4313 0.85772 15.6576 1.31873 16.5836 2.17782C17.0012 2.59437 17.3317 3.08988 17.5558 3.63546C17.7799 4.18104 17.8933 4.76578 17.8891 5.3556C17.8842 6.01432 17.7491 6.66558 17.4917 7.27194C17.2343 7.87831 16.8596 8.42783 16.3891 8.88893L8.65023 16.5556C8.60212 16.6203 8.54051 16.6738 8.46966 16.7123C8.39881 16.7508 8.32043 16.7734 8.23996 16.7786C8.1595 16.7837 8.07887 16.7713 8.00368 16.7422C7.92849 16.7131 7.86054 16.6679 7.80456 16.6099C7.74857 16.5519 7.70589 16.4823 7.67947 16.4062C7.65306 16.33 7.64354 16.249 7.65159 16.1687C7.65963 16.0885 7.68505 16.011 7.72607 15.9415C7.76708 15.8721 7.82272 15.8125 7.88912 15.7667L15.6058 8.10004C15.9723 7.74231 16.2645 7.31571 16.4656 6.84474C16.6668 6.37377 16.7729 5.8677 16.778 5.3556C16.782 4.9124 16.6976 4.47285 16.5297 4.06267C16.3618 3.65248 16.1138 3.27989 15.8002 2.96671C15.0823 2.31274 14.1364 1.96672 13.166 2.00308C12.1956 2.03945 11.2783 2.4553 10.6113 3.16115L2.028 11.6778C1.77507 11.9234 1.57357 12.2169 1.43526 12.5412C1.29695 12.8656 1.22461 13.2142 1.22245 13.5667C1.22126 13.8763 1.28154 14.183 1.3998 14.4691C1.51805 14.7552 1.69193 15.015 1.91134 15.2334L1.98356 15.3056C2.48064 15.7633 3.13759 16.0076 3.81298 15.9858C4.48836 15.964 5.12817 15.6778 5.59467 15.1889L13.0113 7.8556C13.1516 7.71378 13.2622 7.54542 13.3366 7.36036C13.411 7.1753 13.4477 6.97725 13.4447 6.77782C13.4459 6.6046 13.4126 6.43286 13.3468 6.27262C13.281 6.11239 13.184 5.96685 13.0613 5.84449C12.7808 5.58721 12.4103 5.45059 12.0299 5.4641C11.6495 5.47761 11.2896 5.64018 11.028 5.91671L5.91689 10.9834C5.81228 11.0873 5.67069 11.1453 5.52326 11.1448C5.37584 11.1443 5.23466 11.0852 5.13078 10.9806C5.02691 10.876 4.96884 10.7344 4.96936 10.587C4.96988 10.4395 5.02895 10.2984 5.13356 10.1945L10.2669 5.11115C10.7374 4.62911 11.3786 4.35137 12.0521 4.33786C12.7256 4.32435 13.3774 4.57615 13.8669 5.03893C14.092 5.26809 14.2689 5.54003 14.3873 5.83868C14.5056 6.13733 14.5629 6.45666 14.5558 6.77782C14.5552 7.12366 14.4856 7.46591 14.3511 7.78453C14.2166 8.10315 14.0199 8.39173 13.7724 8.63338L6.378 15.9889C5.66128 16.7045 4.6908 17.1079 3.678 17.1112Z" fill="#212134"/>
</svg>
