<svg width="19" height="20" viewBox="0 0 19 20" fill="none" xmlns="http://www.w3.org/2000/svg">
<path fill-rule="evenodd" clip-rule="evenodd" d="M17.7367 5.66957C16.3105 2.24494 12.9689 0.0102816 9.25912 0.000372992C5.26093 -0.0206814 1.70583 2.5403 0.459509 6.33934C-0.78681 10.1384 0.560364 14.3076 3.79405 16.6591C7.02773 19.0105 11.4092 19.007 14.6391 16.6504L17.5191 19.5304C17.8119 19.8228 18.2863 19.8228 18.5791 19.5304C18.8716 19.2376 18.8716 18.7632 18.5791 18.4704L15.7891 15.6804C18.3952 13.0402 19.1629 9.09421 17.7367 5.66957ZM16.3996 12.1693C15.2021 15.055 12.3834 16.9344 9.25912 16.9304V16.8904C5.01883 16.885 1.57658 13.4606 1.54912 9.22037C1.54508 6.09611 3.42451 3.27742 6.31018 2.07994C9.19586 0.88247 12.5188 1.54232 14.728 3.75152C16.9372 5.96071 17.597 9.28364 16.3996 12.1693Z" fill="#C0C0CF"/>
</svg>
